<mxfile host="app.diagrams.net" agent="Mozilla/5.0 (Windows NT 10.0; Win64; x64) AppleWebKit/537.36 (KHTML, like Gecko) Chrome/131.0.0.0 Safari/537.36" version="25.0.3">
  <diagram name="Página-1" id="PRYaVCJEeMc3ZQOkppT4">
    <mxGraphModel dx="794" dy="492" grid="1" gridSize="10" guides="1" tooltips="1" connect="1" arrows="1" fold="1" page="1" pageScale="1" pageWidth="827" pageHeight="1169" math="0" shadow="0">
      <root>
        <mxCell id="0" />
        <mxCell id="1" parent="0" />
        <mxCell id="h8yVh8gekCZQU36gfvCb-1" value="" style="rounded=0;whiteSpace=wrap;html=1;" parent="1" vertex="1">
          <mxGeometry x="420" y="210" width="150" height="90" as="geometry" />
        </mxCell>
        <mxCell id="h8yVh8gekCZQU36gfvCb-2" value="Dependiente&lt;div&gt;&lt;br&gt;&lt;/div&gt;" style="shape=umlActor;verticalLabelPosition=bottom;verticalAlign=top;html=1;outlineConnect=0;" parent="1" vertex="1">
          <mxGeometry x="310" y="200" width="30" height="60" as="geometry" />
        </mxCell>
        <mxCell id="h8yVh8gekCZQU36gfvCb-3" style="rounded=0;orthogonalLoop=1;jettySize=auto;html=1;entryX=1;entryY=0.5;entryDx=0;entryDy=0;strokeColor=default;endArrow=none;endFill=0;" parent="1" source="h8yVh8gekCZQU36gfvCb-4" target="h8yVh8gekCZQU36gfvCb-6" edge="1">
          <mxGeometry relative="1" as="geometry" />
        </mxCell>
        <mxCell id="h8yVh8gekCZQU36gfvCb-4" value="Jefe" style="shape=umlActor;verticalLabelPosition=bottom;verticalAlign=top;html=1;outlineConnect=0;" parent="1" vertex="1">
          <mxGeometry x="640" y="200" width="30" height="60" as="geometry" />
        </mxCell>
        <mxCell id="h8yVh8gekCZQU36gfvCb-5" value="Aplicación" style="text;html=1;align=center;verticalAlign=middle;whiteSpace=wrap;rounded=0;" parent="1" vertex="1">
          <mxGeometry x="460" y="210" width="60" height="30" as="geometry" />
        </mxCell>
        <mxCell id="h8yVh8gekCZQU36gfvCb-6" value="Caso de uso&lt;div&gt;CU-017&lt;/div&gt;" style="ellipse;whiteSpace=wrap;html=1;" parent="1" vertex="1">
          <mxGeometry x="448.75" y="240" width="92.5" height="50" as="geometry" />
        </mxCell>
        <mxCell id="h8yVh8gekCZQU36gfvCb-7" style="rounded=0;orthogonalLoop=1;jettySize=auto;html=1;strokeColor=default;endArrow=none;endFill=0;entryX=0;entryY=0.5;entryDx=0;entryDy=0;" parent="1" source="h8yVh8gekCZQU36gfvCb-2" target="h8yVh8gekCZQU36gfvCb-6" edge="1">
          <mxGeometry relative="1" as="geometry">
            <mxPoint x="650" y="230" as="sourcePoint" />
            <mxPoint x="450" y="257" as="targetPoint" />
          </mxGeometry>
        </mxCell>
      </root>
    </mxGraphModel>
  </diagram>
</mxfile>
